<svg width="49" height="138" viewBox="0 0 49 138" fill="none" xmlns="http://www.w3.org/2000/svg">
<path d="M34.6031 0.194336C32.7917 0.766022 30.391 2.88016 28.6777 5.39339C27.772 6.72012 26.0806 10.0208 25.2512 12.1025C23.4289 16.6868 22.5668 20.969 22.4358 26.2004C22.3376 29.9756 22.5777 33.2008 23.3961 39.2411C23.8217 42.4016 23.8326 42.531 23.6362 42.7036C23.5271 42.8007 22.414 43.7391 21.1482 44.7746C12.1018 52.2388 7.4095 57.2868 3.9721 63.2733C1.97514 66.7573 0.632918 70.7914 0.130948 74.7931C-0.0436495 76.1522 -0.0436495 79.2911 0.130948 80.7796C0.611093 84.9971 2.07335 89.2901 4.21218 92.8064C5.71808 95.2873 8.30432 98.1997 10.6177 100.023C14.9827 103.453 19.9915 105.631 24.7165 106.138C26.1024 106.289 30.0418 106.192 31.3513 105.987C31.8641 105.901 32.3006 105.847 32.3115 105.869C32.3334 105.88 32.7699 108.943 33.2827 112.675L34.2103 119.449L34.2321 121.984C34.243 124.669 34.1776 125.338 33.6756 127.107C32.5189 131.249 29.5507 133.967 25.3167 134.766C24.1927 134.981 21.7593 134.971 20.5262 134.766C18.4419 134.399 16.7396 133.644 15.692 132.619L15.0373 131.972L16.1831 131.886C19.6204 131.616 21.7374 130.419 22.8942 128.1C23.4616 126.956 23.6362 125.985 23.5707 124.303C23.4725 121.854 22.7959 120.204 21.2573 118.694C20.2861 117.734 19.5441 117.259 18.3437 116.828C17.6235 116.569 17.4052 116.537 16.0194 116.537C14.8081 116.537 14.3716 116.58 13.8915 116.741C11.2507 117.637 9.31917 119.546 8.44618 122.145C7.97695 123.526 7.846 124.508 7.92238 126.029C8.15154 130.429 10.7378 134.356 14.7644 136.416C15.9757 137.042 17.0888 137.43 18.6274 137.753C20.0679 138.055 23.538 138.088 25.0657 137.807C29.5507 136.966 32.7589 135.046 34.8105 131.95C37.0148 128.628 37.5386 124.874 36.6547 118.586C35.7162 111.823 34.8323 105.243 34.865 105.222C34.8869 105.2 35.2906 105.06 35.7708 104.898C39.0227 103.765 42.2964 101.576 44.3915 99.1057C47.8071 95.0824 49.3567 90.0559 48.9311 84.3715C48.6801 81.0061 48.069 78.6547 46.7813 76.0875C45.5483 73.6174 43.835 71.5788 41.6634 69.9608C40.5613 69.1411 38.3024 67.9869 36.9711 67.5663C34.9742 66.9191 32.4207 66.5847 30.6201 66.7141C29.6271 66.7788 29.6162 66.7788 29.5616 66.5308C29.5289 66.3905 29.3216 64.9559 29.1142 63.3596C28.896 61.7524 28.4813 58.6567 28.1758 56.4563L27.6301 52.4653L27.9357 52.2064C28.9287 51.3759 32.1806 48.3233 33.5446 46.9534C39.0663 41.3661 41.7507 35.7571 42.6456 27.9262C43.2676 22.4036 43.3003 18.7685 42.7438 14.8207C42.0017 9.50301 40.474 5.06979 38.3679 2.12511C36.9166 0.0864716 36.1636 -0.301834 34.6031 0.194336ZM37.7023 12.3722C38.7935 12.8468 39.5792 13.9039 39.9284 15.3816C40.1357 16.2661 40.1575 18.3479 39.972 19.5667C39.5355 22.5222 37.9532 26.7181 36.2182 29.5442C34.6141 32.1329 31.4822 35.865 28.9942 38.1194C27.2045 39.7481 26.1133 40.6865 26.0697 40.6434C26.026 40.6002 25.7969 39.0578 25.5677 37.278C25.0112 32.8987 25.2949 29.048 26.4843 24.9923C27.9248 20.1276 29.8563 16.4495 32.2242 14.1196C33.4028 12.9654 34.0903 12.5124 35.1706 12.2104C35.8253 12.027 37.0584 12.1025 37.7023 12.3722ZM26.3206 61.0513L27.1609 67.275L26.5498 67.4584C24.0509 68.2242 21.0172 70.2305 19.2167 72.3015C16.4777 75.4619 14.9609 79.1509 14.7972 83.0448C14.6335 87.1759 16.1285 91.1669 18.8566 93.8959C20.4171 95.4707 22.1958 96.463 24.0618 96.8298C24.8366 96.9808 24.9239 96.9808 25.1748 96.8082C25.5022 96.6033 25.5459 96.2042 25.284 95.9345C25.1858 95.8374 24.8038 95.6109 24.4328 95.4275C21.7156 94.0792 19.9478 91.6631 19.3913 88.5135C18.5947 84.0371 21.3555 79.043 25.7096 77.0583C26.4407 76.7239 28.2631 76.1738 28.3503 76.2709C28.3613 76.2817 29.1906 82.3436 30.1836 89.7323C31.4167 98.8792 31.9514 103.183 31.875 103.226C31.8096 103.269 31.264 103.377 30.6529 103.474C27.5537 103.938 24.3128 103.97 22.1412 103.539C17.689 102.665 12.8875 99.9147 10.1485 96.6464C6.82023 92.6986 5.25976 88.6105 5.25976 83.8861C5.25976 81.3297 5.59805 79.3019 6.41648 76.8426C7.9333 72.2691 10.4104 68.5478 15.0918 63.8126C17.9836 60.8787 25.3713 54.3421 25.4477 54.6549C25.4695 54.752 25.8623 57.632 26.3206 61.0513ZM32.8244 76.314C34.6359 76.6592 36.6983 77.5437 38.1387 78.6223C39.1754 79.3989 40.7032 81.0385 41.3143 82.0416C42.7874 84.4686 43.3221 86.669 43.213 89.8941C43.0821 94.1116 41.7726 97.3152 39.2082 99.699C38.0405 100.788 35.7926 102.137 34.7232 102.406L34.4504 102.471L34.1557 100.281C33.992 99.0734 33.5665 95.9561 33.2064 93.3458C31.3185 79.496 30.9148 76.4974 30.9148 76.2817C30.9148 76.0552 30.9475 76.0444 31.4386 76.0983C31.7223 76.1307 32.3443 76.2277 32.8244 76.314Z" fill="black"/>
</svg>
