<svg width="86" height="138" viewBox="0 0 86 138" fill="none" xmlns="http://www.w3.org/2000/svg">
<path d="M1.21018 0.539378C0.828018 0.862705 0.420378 1.56325 0.267514 2.10213C-0.0891712 3.50321 -0.0891712 134.451 0.267514 135.852C0.420378 136.391 0.828018 137.091 1.21018 137.414C1.84712 137.926 2.17832 137.953 10.6878 137.953C20.4712 137.953 20.3438 137.98 21.0571 136.175C21.5922 134.828 21.5922 3.12599 21.0571 1.7788C20.3438 -0.0264438 20.4712 0.000500116 10.6878 0.000500116C2.17832 0.000500116 1.84712 0.027444 1.21018 0.539378ZM15.554 68.9769V132.026H10.7133H5.87256V68.9769V5.92816H10.7133H15.554V68.9769Z" fill="black"/>
<path d="M29.5151 0.781369L28.6743 1.56274V68.9764V136.39L29.5151 137.171C30.687 138.276 32.2666 138.276 33.4386 137.171L34.2794 136.39V68.9764V1.56274L33.4386 0.781369C32.8017 0.161659 32.3686 -4.10294e-06 31.4768 -4.10294e-06C30.5851 -4.10294e-06 30.152 0.161659 29.5151 0.781369Z" fill="black"/>
<path d="M61.287 0.619792C57.8985 1.64366 55.2233 3.28724 52.7265 5.92774C49.0578 9.78072 47.6565 13.2026 47.4527 18.8608C47.2743 23.7646 48.0896 26.6746 50.3826 29.3689C53.6182 33.168 59.0449 33.195 62.1787 29.4498C65.5417 25.3812 66.2296 18.5644 63.7838 13.2295C63.1213 11.7746 61.6946 10.0502 60.2679 8.99935L59.529 8.43353L60.6755 7.73299C62.5099 6.60134 63.9621 6.14329 65.8729 6.14329C75.427 6.11635 82.4587 21.7708 79.5034 36.536C78.1785 43.2181 74.6117 49.3074 70.6882 51.5168C68.2423 52.9179 67.0194 53.0796 59.58 53.0796H52.752V52.0557C52.7265 49.6308 49.8985 48.3914 48.1661 50.0349C47.7329 50.466 45.3126 54.6154 42.7648 59.2767C38.6375 66.8479 38.1279 67.8987 38.1279 68.9765C38.1279 70.0543 38.6375 71.1051 42.7648 78.6763C45.3126 83.3376 47.7329 87.487 48.1661 87.8911C49.8985 89.5617 52.7265 88.3222 52.752 85.8703V84.8734H59.58C67.0194 84.8734 68.2423 85.0351 70.6882 86.4362C72.5225 87.46 74.9174 90.1275 76.2932 92.5794C81.083 101.228 81.5161 113.138 77.3633 122.191C73.3633 130.894 66.8156 134.046 60.6755 130.22L59.529 129.519L60.2679 128.954C63.4525 126.583 65.236 122.649 65.236 117.961C65.236 114.161 64.1914 110.928 62.1787 108.503C59.8857 105.755 56.0386 104.92 52.9558 106.509C49.4399 108.342 47.4017 112.518 47.4017 117.907C47.4017 120.897 47.682 122.568 48.5737 124.966C50.8157 130.921 56.3443 135.932 62.4334 137.576C64.65 138.168 68.8283 137.98 70.9429 137.172C77.0066 134.881 82.4078 127.876 84.6243 119.496C86.0256 114.188 86.3823 106.779 85.516 101.659C83.9619 92.5255 80.0893 85.4931 74.4588 81.6132C70.7646 79.0535 68.7009 78.7033 57.5927 78.6763H49.5673L46.9431 73.8264L44.2935 68.9765L46.9431 64.1266L49.5673 59.2767H57.5927C66.1532 59.2498 68.4971 59.0611 71.0194 58.172C75.5798 56.5823 80.2167 51.6516 82.8409 45.6431C86.2804 37.7755 86.9683 27.3751 84.6243 18.4567C82.4078 10.0771 77.0066 3.07169 70.9429 0.781456C68.599 -0.107693 63.9876 -0.188525 61.287 0.619792ZM57.5672 14.6845C60.0131 16.867 59.9367 23.4952 57.4399 25.5699C56.4972 26.3512 55.7838 26.2704 54.8412 25.2465C53.7966 24.0879 53.2106 22.3366 53.2106 20.208C53.1596 15.5467 55.3762 12.7446 57.5672 14.6845ZM57.4399 112.383C58.7647 113.488 59.2488 114.916 59.2488 117.745C59.2488 119.954 59.1469 120.493 58.6118 121.625C57.4144 124.131 56.0131 124.535 54.51 122.837C53.5928 121.814 53.2106 120.305 53.2106 117.88C53.2106 115.616 53.7456 113.892 54.8412 112.706C55.7838 111.683 56.4972 111.602 57.4399 112.383Z" fill="black"/>
</svg>
