<svg width="82" height="138" viewBox="0 0 82 138" fill="none" xmlns="http://www.w3.org/2000/svg">
<path d="M21.7215 0.383642C12.9464 2.40543 6.05044 9.33342 2.38635 19.8737C0.751607 24.5373 0 29.3626 0 35.0236C0 42.976 1.63475 49.8231 4.67876 54.8371C8.28647 60.7407 13.3222 63.8678 19.2787 63.8947C22.4919 63.9217 24.8218 62.6817 26.9827 59.7972C29.1248 56.8859 30.2898 53.1388 30.3086 48.9065C30.3461 44.3777 29.3503 40.7116 27.2646 37.7193C23.1307 31.7887 16.5354 31.5731 12.3264 37.2071C11.1802 38.7437 11.1238 38.7976 10.9923 38.2046C10.7292 37.0184 10.8419 32.247 11.1802 30.4409C12.1572 25.1303 14.7315 20.7363 18.3392 18.1484C21.9094 15.6144 26.5881 14.8596 30.9286 16.1266C32.3003 16.504 34.8182 17.8788 36.2651 19.011C41.9773 23.5129 46.393 32.3818 48.4787 43.6499C50.1134 52.5188 50.1886 64.1104 48.6478 74.3811C48.0465 78.5325 46.5245 84.7326 45.1152 88.8301C39.854 104.33 29.82 116.165 18.2641 120.64C16.0844 121.475 12.4767 122.338 11.199 122.365C10.6916 122.365 9.94001 122.446 9.5642 122.527L8.85018 122.715V130.344V138H10.5977C17.5125 138 26.4566 134.307 33.3902 128.565C46.2426 117.944 55.0365 101.338 58.7381 80.6891C60.0534 73.3837 60.5796 67.1835 60.5796 59.1503C60.5796 53.0849 60.3917 49.7961 59.7528 44.5934C56.8215 21.1946 45.942 3.91503 31.9997 0.491471C29.4818 -0.101587 24.1642 -0.182459 21.7215 0.383642Z" fill="black"/>
<path d="M74.8979 23.2432C73.7892 23.8632 73.1504 24.5102 72.4927 25.6154C70.6701 28.6347 70.8392 33.3522 72.8309 36.2366C73.8644 37.6923 75.0106 38.3392 76.589 38.3392C79.3323 38.3392 81.4368 35.8861 81.9066 32.1391C82.5267 27.2059 79.99 22.8389 76.5326 22.9197C75.9501 22.9197 75.2173 23.0815 74.8979 23.2432Z" fill="black"/>
<path d="M74.9918 53.8665C73.6953 54.4326 72.3611 56.077 71.6847 57.9371C71.1586 59.3658 71.1774 63.3555 71.7411 64.8111C72.7369 67.4799 74.4844 68.9625 76.6077 68.9895C77.7351 68.9895 78.1297 68.8547 79.1068 68.1538C84.0674 64.5955 82.226 53.57 76.6829 53.6509C76.0064 53.6509 75.2548 53.7587 74.9918 53.8665Z" fill="black"/>
</svg>
